<?xml version="1.0" standalone="no"?>
<!DOCTYPE svg PUBLIC "-//W3C//DTD SVG 1.1//EN" "http://www.w3.org/Graphics/SVG/1.1/DTD/svg11.dtd" >
<svg xmlns="http://www.w3.org/2000/svg" xmlns:xlink="http://www.w3.org/1999/xlink" version="1.1" viewBox="0 0 1000 1736">
   <path fill="#8080ffff"
d="M1084.16 1163.48zM783.781 1083.5q10.9688 -16.7578 21.0938 -38.8477t18.1406 -47.9883t12.6562 -55.2246t4.64062 -60.5566q0 -41.8945 -10.5469 -85.3125t-35.8594 -84.1699t-67.5 -77.3145t-105.469 -65.5078v521.777q0 57.1289 -17.2969 106.641t-50.2031 86.0742
t-81 57.8906t-108.844 21.3281q-59.9062 0 -94.0781 -29.3262t-34.1719 -79.5996q0 -31.2305 15.6094 -62.8418t43.875 -57.1289t67.5 -41.5137t87.3281 -15.9961q44.7188 0 94.5 17.5195v-831.035h75.9375v12.9492q0 29.707 12.2344 57.1289t32.4844 55.6055
t46.8281 57.5098t54.4219 62.0801q27.8438 33.5156 54.4219 70.8398t47.25 79.9805t32.9062 92.168t12.2344 106.641q0 67.793 -23.625 129.111t-59.9062 116.162z" />
</svg>
